<?xml version="1.0" encoding="UTF-8"?>
<svg id="Layer_1" xmlns="http://www.w3.org/2000/svg" version="1.1" viewBox="0 0 864 864">
  <!-- Generator: Adobe Illustrator 29.8.3, SVG Export Plug-In . SVG Version: 2.1.1 Build 3)  -->
  <defs>
    <style>
      .st0 {
        fill: #fff;
      }

      .st1 {
        fill: #edd800;
      }
    </style>
  </defs>
  <path class="st1" d="M699.43,335.22c-35.53,15.83-74.45,46.27-112.46,53.82l-53.47-224.76-187.9,338.74c-22.55,12.3-49.5,82.44,1.21,69.44,67.2-27.21,130.18-66.44,196.36-96.25,8.96-4.04,20.75-12.09,30.07-9.61L109.72,860.75c-36.62.89-73.33,6.85-109.72-.01l.57-7.25C165.84,575.46,317.56,287.13,478.44,5.74c2.37-2.61,5.27-2.65,8.28-3.1,23.57-3.58,102.71-3.45,126.45,0,3.01.44,6.15-.3,8.16,3.25l78.1,329.33Z"/>
  <path class="st0" d="M699.43,335.22c38.82-17.3,92.99-34.57,133.81-46.59,10.08-2.97,20.26-6.9,30.76-7.2l-145.37,132.94c-38.69,23.67-71.01,65.75-104.23,94.98-84.09,73.98-173.44,146.89-259.69,217.87-36.17,29.76-128.98,116.24-163.45,131.09-20.3,8.75-58.24,1.89-81.53,2.45l463.52-394.17c-9.32-2.48-21.11,5.57-30.07,9.61-66.18,29.82-129.17,69.05-196.36,96.25-50.7,13-23.76-57.15-1.21-69.44,2.68-1.46,9.58-1.35,14.44-3.86,47.78-24.64,184.52-101.68,226.92-110.11,38.01-7.55,76.93-37.99,112.46-53.82Z"/>
  <path class="st1" d="M718.63,414.36l82.28,379.91h-123.43l-63.08-284.93c33.22-29.22,65.54-71.31,104.23-94.98Z"/>
</svg>